<svg xmlns="http://www.w3.org/2000/svg" version="1.1" viewBox="0 0 20 20" width="20" height="20 ">
  <path fill="currentColor" d="M13.53,3.77c.05-2.16.47-3.14,1.03-3.51.09-.06.04-.19-.07-.19H4.18C1.51.07,1.27,2.74,1.29,3.78c0,.23.19.41.42.41h11.41c.23,0,.41-.19.42-.42Z"/>
  <path fill="currentColor" d="M18.7,2.35c-.1-1.12-1.02-2-2.17-2s-2.07.88-2.17,2h-.02v1.67c-.03.42-.22,1.16-1.26,1.16H4.31c-.26,0-.47.21-.47.47v12.35c0,.26.21.47.47.47h6.55v1.32c0,.11.12.17.21.11l2.01-1.38,2.01,1.38c.09.06.21,0,.21-.11v-1.32h2.94c.26,0,.47-.21.47-.47V2.35h-.02ZM15.36,13.46l-.33.6.1.68c.02.12-.05.23-.16.28l-.64.25-.36.59c-.06.1-.19.15-.3.11l-.65-.22-.65.22c-.11.04-.24,0-.3-.11l-.36-.59-.64-.25c-.11-.04-.18-.16-.16-.28l.1-.68-.33-.6c-.06-.1-.03-.23.06-.31l.51-.45.13-.67c.02-.12.12-.2.24-.2l.69-.02.54-.43c.09-.07.23-.07.32,0l.54.43.69.02c.12,0,.22.09.24.2l.13.67.51.45c.09.08.11.21.06.31ZM15.2,10.18h-7.84c-.27,0-.5-.22-.5-.5s.22-.5.5-.5h7.84c.27,0,.5.22.5.5s-.22.5-.5.5ZM15.2,7.54h-7.84c-.27,0-.5-.22-.5-.5s.22-.5.5-.5h7.84c.27,0,.5.22.5.5s-.22.5-.5.5Z"/>
</svg>