<svg width="20" height="20" viewBox="0 0 20 20" fill="none" xmlns="http://www.w3.org/2000/svg">
<g clip-path="url(#clip0_46_78)">
<path d="M14.9524 6.81144L10 9.56192L5.04765 6.81144C4.95241 6.75811 4.8305 6.7924 4.77717 6.88763C4.72384 6.98287 4.75812 7.10478 4.85336 7.15811L9.88955 9.9543C9.92003 9.96954 9.9505 9.98097 9.98479 9.98097H10.0115C10.0457 9.98097 10.08 9.97335 10.1067 9.9543L15.1429 7.15811C15.2381 7.10478 15.2724 6.98287 15.2191 6.88763C15.1657 6.7924 15.0438 6.75811 14.9486 6.81144H14.9524Z" fill="#currentColor"/>
<path d="M10 0C4.47619 0 0 4.47619 0 10C0 15.5238 4.47619 20 10 20C15.5238 20 20 15.5238 20 10C20 4.47619 15.5238 0 10 0ZM15.8362 12.9752C15.8362 13.4476 15.4514 13.8324 14.979 13.8324H5.02476C4.55238 13.8324 4.16762 13.4476 4.16762 12.9752V7.02476C4.16762 6.55238 4.55238 6.16762 5.02476 6.16762H14.979C15.4514 6.16762 15.8362 6.55238 15.8362 7.02476V12.9752Z" fill="#currentColor"/>
</g>
<defs>
<clipPath id="clip0_46_78">
<rect width="20" height="20" fill="white"/>
</clipPath>
</defs>
</svg>
