<svg width="20" height="20" viewBox="0 0 20 20" fill="none" xmlns="http://www.w3.org/2000/svg">
    <path
        d="M10 0C4.47619 0 0 4.47619 0 10C0 15.5238 4.47619 20 10 20C15.5238 20 20 15.5238 20 10C20 4.47619 15.5238 0 10 0ZM14.8305 13.3524C14.6095 13.9657 13.5657 14.5105 13.1238 14.5486C13.0552 14.5562 12.7314 14.6324 12.579 14.6324C12.2286 14.6324 11.6114 14.5029 10.1714 13.939C9.04381 13.4971 7.92762 12.6552 6.93714 11.5162C6.62476 11.1543 5.99619 10.2857 5.98857 10.2743C5.57714 9.72571 5.26857 9.12381 5.10857 8.57524C5.02095 8.27048 4.97905 7.99619 4.97905 7.73333C4.97905 6.59429 5.53524 6.00381 5.8019 5.72191L5.85143 5.67238C6.1219 5.37524 6.97905 5.37143 7.07048 5.36381C7.25714 5.35619 7.45524 5.37905 7.63809 5.81714C7.70286 5.96191 8.34667 7.52 8.38857 7.6C8.44571 7.7181 8.51048 7.89333 8.40762 8.09524C8.40762 8.09524 8.30857 8.30095 8.25143 8.38857C8.22476 8.42667 7.86667 8.85714 7.78667 8.93714C7.65333 9.07048 7.58476 9.15429 7.69143 9.33333C7.86667 9.62667 8.34286 10.3771 9.02857 10.9829C9.80191 11.6686 10.9257 12.1486 10.9638 12.1676C11.1962 12.2819 11.2952 12.2438 11.3981 12.1257C11.5505 11.9581 12.0076 11.4248 12.1638 11.1924C12.3695 10.8838 12.6019 10.9676 12.8038 11.04C13.04 11.1276 14.301 11.7448 14.4724 11.8286C14.4724 11.8286 14.9029 12.0381 14.9676 12.1371C15.0476 12.2667 15.0438 12.7733 14.8343 13.3524H14.8305Z"
        fill="currentColor" />
</svg>