<svg xmlns="http://www.w3.org/2000/svg" version="1.1" viewBox="0 0 20 20">
  <rect fill="currentColor" x="7.82" y="7.82" width="12.18" height="12.18" rx="1.2" ry="1.2"/>
  <path fill="currentColor" d="M16.09,6.52v-1.4c0-.67-.54-1.2-1.2-1.2H5.11c-.67,0-1.2.54-1.2,1.2v9.77c0,.66.54,1.2,1.2,1.2h1.41v-7.07c0-1.38,1.12-2.5,2.5-2.5h7.07Z"/>
  <path fill="currentColor" d="M12.18,2.62v-1.42c0-.66-.54-1.2-1.2-1.2H1.2C.54,0,0,.54,0,1.2v9.79c0,.66.54,1.2,1.2,1.2h1.41v-7.07c0-1.38,1.12-2.5,2.5-2.5h7.07Z"/>
</svg>