<svg xmlns="http://www.w3.org/2000/svg" version="1.1" viewBox="0 0 20 20">
  <path fill="currentColor" d="M16.81,4.81h-.49c-.34-1.4-1.6-2.45-3.11-2.45-.58,0-1.11.17-1.58.43-.84-1.26-2.27-2.09-3.89-2.09-2.39,0-4.34,1.8-4.62,4.12-1.73.04-3.12,1.44-3.12,3.18h0c0,1.76,1.43,3.19,3.19,3.19h13.63c1.76,0,3.19-1.43,3.19-3.19h0c0-1.76-1.43-3.19-3.19-3.19Z"/>
  <path fill="currentColor" d="M16.05,12.45c0-.06,0-.12-.01-.19h-2.29c0,.06.02.12.02.19,0,2.08-1.69,3.77-3.77,3.77s-3.77-1.69-3.77-3.77c0-.06.02-.12.02-.19h-2.29c0,.06-.01.12-.01.19,0,.24.04.48.07.71l-.87.39c.08.48.2.94.37,1.38l.92-.1c.19.45.45.85.74,1.24l-.56.77c.3.37.64.71,1.01,1.01l.77-.56c.38.29.79.54,1.24.74l-.1.92c.44.17.9.29,1.38.37l.39-.87c.24.03.47.07.71.07s.48-.04.71-.07l.39.87c.48-.08.94-.2,1.38-.37l-.1-.92c.45-.19.85-.45,1.24-.74l.77.56c.37-.3.71-.64,1.01-1.01l-.56-.77c.29-.38.54-.79.74-1.24l.92.1c.17-.44.29-.9.37-1.38l-.87-.39c.03-.24.07-.47.07-.71Z"/>
</svg>