<svg xmlns="http://www.w3.org/2000/svg" version="1.1" viewBox="0 0 20 20" width="20" height="20">
  <path fill="currentColor" d="M18,0H2C.89,0,0,.89,0,2v16c0,1.1.89,2,2,2h16c1.1,0,2-.89,2-2V2c0-1.1-.89-2-2-2ZM3.64,10.24l2.97,2.18.05.03h.02c.15.12.25.28.28.47.03.19-.02.37-.13.53-.13.17-.34.28-.56.28-.15,0-.3-.05-.42-.14l-4.15-3.04c-.18-.12-.29-.34-.29-.56s.11-.43.28-.56l4.15-3.04c.12-.09.27-.13.42-.13.22,0,.44.11.56.29.11.15.16.35.13.53-.03.18-.13.34-.28.45l-3.05,2.24-.33.24.33.24ZM12.24,5l-3.15,10.39c-.1.3-.36.5-.67.5-.05,0-.14,0-.21-.03-.18-.05-.32-.17-.41-.34-.09-.17-.11-.35-.05-.53l3.15-10.39c.09-.29.36-.49.67-.49.07,0,.14.01.2.03.33.1.54.43.48.81,0,.02,0,.03,0,.05ZM18.33,10.52s-.02.02-.04.03l-4.15,3.04c-.12.1-.26.14-.42.14-.22,0-.44-.11-.56-.28-.11-.15-.16-.35-.13-.53.03-.18.13-.34.28-.45l3.05-2.24.33-.24-.33-.24-3.05-2.24c-.15-.11-.25-.27-.28-.46-.03-.19.01-.37.12-.52.13-.18.34-.29.57-.29.15,0,.29.05.41.13l4.15,3.04c.18.12.29.34.29.56,0,.19-.08.38-.24.54Z"/>
</svg>