<svg width="30" height="30" viewBox="0 0 30 30" fill="none" xmlns="http://www.w3.org/2000/svg">
    <path
        d="M7.48672 28.5479C6.15109 28.5479 5.06734 27.4642 5.06734 26.1286C5.06734 24.7929 6.15109 23.7092 7.48672 23.7092H25.8914C26.3423 23.7092 26.7085 23.343 26.7085 22.8921V0.823397C26.7106 0.368306 26.3402 0 25.8851 0H6.88981C4.90223 0 3.28931 1.61081 3.28931 3.59839V26.3318C3.28931 28.3574 4.93187 30 6.95755 30H25.8851C26.3402 30 26.7085 29.6317 26.7085 29.1766C26.7085 28.8295 26.427 28.5501 26.0819 28.5501H7.48672V28.5479Z"
        fill="currentColor" />
    <path
        d="M25.1824 24.8184H7.49734C7.23197 24.8184 7.01685 25.0335 7.01685 25.2988C7.01685 25.5642 7.23197 25.7793 7.49734 25.7793H25.1824C25.4477 25.7793 25.6629 25.5642 25.6629 25.2988C25.6629 25.0335 25.4477 24.8184 25.1824 24.8184Z"
        fill="currentColor" />
    <path
        d="M25.1824 26.6133H7.49734C7.23197 26.6133 7.01685 26.8284 7.01685 27.0938C7.01685 27.3591 7.23197 27.5743 7.49734 27.5743H25.1824C25.4477 27.5743 25.6629 27.3591 25.6629 27.0938C25.6629 26.8284 25.4477 26.6133 25.1824 26.6133Z"
        fill="currentColor" />
</svg>