<svg width="30" height="30" viewBox="0 0 30 30" fill="none" xmlns="http://www.w3.org/2000/svg">
    <path
        d="M14.9968 14.9927C15.1852 13.9301 15.6382 13.0432 16.324 12.2685C16.4214 12.1584 16.523 12.0547 16.6267 11.951C20.4579 8.11974 24.2891 4.29063 28.1161 0.457282C28.4294 0.14401 28.7765 -0.0295593 29.2168 0.0889759C29.892 0.271012 30.1715 1.05842 29.7735 1.63417C29.7079 1.72942 29.6232 1.81197 29.5407 1.89452C25.7179 5.7194 21.893 9.54005 18.0703 13.367C17.3019 14.1354 16.4087 14.673 15.3503 14.9355C15.2932 14.9503 15.236 14.9609 15.1789 14.9715C15.1323 14.98 15.0857 14.9842 14.9968 14.9948V14.9927Z"
        fill="currentColor" />
    <path
        d="M1.72099 7.55862C0.72191 7.55862 -0.0866699 8.3672 -0.0866699 9.36417V28.1986C-0.0866699 29.1955 0.72191 30.002 1.71888 30.002C9.94649 30.002 19.967 29.9999 28.1946 29.9978C29.1915 29.9978 30.0001 29.1913 30.0001 28.1943C30.0001 23.9885 30.0001 13.5743 30.0001 9.3684C30.0001 8.37355 29.1937 7.56709 28.1967 7.56497C27.5871 7.56497 27.0071 7.56074 26.7594 7.55439C26.5181 7.55016 26.3446 7.61578 26.171 7.79146C23.904 10.0648 21.6243 12.3276 19.3531 14.5988C17.9921 15.9619 16.3516 16.6943 14.4339 16.8404C13.9852 16.8742 13.6317 16.7472 13.2866 16.4509C12.1457 15.4645 10.8884 14.6729 9.38345 14.3659C8.414 14.167 7.45937 14.1945 6.56824 14.6919C6.3989 14.7872 6.24015 14.9057 6.09621 15.0369C5.45274 15.6296 5.40194 16.4255 5.96709 17.0944C6.50262 17.7294 7.23076 18.0575 7.99913 18.3072C9.36228 18.7517 10.772 18.8449 12.1902 18.8597C13.602 18.8745 14.9991 18.9909 16.3516 19.4206C17.6111 19.8207 18.7541 20.4133 19.5521 21.514C20.4199 22.7079 20.4051 24.1705 19.5076 25.1759C18.8028 25.9655 17.8735 26.2449 16.8469 26.2258C16.377 26.2173 16.0193 25.8067 16.0257 25.3601C16.032 24.8965 16.4109 24.5409 16.8914 24.4965C17.1983 24.4689 17.5179 24.4224 17.7995 24.3081C18.3561 24.0816 18.5615 23.5545 18.3752 22.9809C18.2101 22.4729 17.8481 22.1215 17.4227 21.8315C16.5146 21.2156 15.488 20.9044 14.4148 20.7774C13.4475 20.6652 12.4696 20.6398 11.4938 20.5933C9.74964 20.5107 8.03299 20.3075 6.42854 19.5519C5.68557 19.2005 5.02093 18.7475 4.51927 18.0871C3.39107 16.6012 3.70646 14.6157 5.25588 13.4727C6.34598 12.6683 7.58849 12.4207 8.91354 12.5413C10.4481 12.681 11.8113 13.2801 13.0856 14.1119C13.1745 14.1691 13.2634 14.2241 13.3798 14.3003C13.4285 14.1373 13.4687 13.9955 13.5131 13.8558C13.8666 12.7043 14.5016 11.6608 15.3547 10.8078L17.9688 8.1259C18.1741 7.91635 18.0238 7.56286 17.7296 7.56286H1.72099V7.55862ZM26.2197 21.531C26.2176 22.1088 25.8514 22.4771 25.3264 22.4665C24.8227 22.4581 24.484 22.0771 24.4819 21.5162C24.4819 20.6102 24.4819 19.7064 24.4819 18.8004C24.4819 17.8945 24.4819 16.9716 24.4819 16.0551C24.4819 15.5005 24.8248 15.111 25.3264 15.092C25.8196 15.0729 26.2176 15.4772 26.2197 16.0402C26.226 17.8691 26.226 19.7 26.2197 21.5288V21.531Z"
        fill="currentColor" />
    <defs>
        <clipPath id="clip0_31_790">
            <rect width="30" height="30" fill="white" />
        </clipPath>
    </defs>
</svg>