<svg width="30" height="30" viewBox="0 0 30 30" fill="none" xmlns="http://www.w3.org/2000/svg">
    <path
        d="M22.7568 12.3292H17.6899V11.8188C17.6899 11.4219 17.3682 11.0998 16.9713 11.0998H16.0005V8.21585C16.0005 6.54608 17.3594 5.18722 19.0292 5.18722H24.9603C25.5136 5.18722 25.9614 4.73898 25.9614 4.18614C25.9614 3.6333 25.5136 3.18506 24.9603 3.18506H19.0292C16.2547 3.18506 13.9984 5.44185 13.9984 8.21585V11.0998H13.0277C12.6307 11.0998 12.3091 11.4219 12.3091 11.8188V12.3292H7.24214C3.24279 12.3292 0 15.5723 0 19.5717C0 23.5722 3.24279 26.8149 7.24214 26.8149C10.0332 26.8149 12.4518 25.2341 13.6612 22.9215H16.3388C17.5481 25.2341 19.9668 26.8149 22.7569 26.8149C26.7573 26.8149 30.0001 23.5721 30.0001 19.5717C30 15.5723 26.7572 12.3292 22.7568 12.3292ZM10.7361 20.3089C10.7361 20.5934 10.5054 20.8236 10.2219 20.8236H8.49352V22.5516C8.49352 22.8356 8.26277 23.0658 7.97928 23.0658H6.505C6.22151 23.0658 5.99082 22.8356 5.99082 22.5516V20.8236H4.26235C3.97886 20.8236 3.74811 20.5934 3.74811 20.3089V18.8357C3.74811 18.5512 3.97886 18.3209 4.26235 18.3209H5.99082V16.5931C5.99082 16.3086 6.22145 16.0783 6.505 16.0783H7.97928C8.26277 16.0783 8.49352 16.3086 8.49352 16.5931V18.3209H10.2219C10.5054 18.3209 10.7361 18.5512 10.7361 18.8357V20.3089ZM20.2532 20.6965C19.6324 20.6965 19.1289 20.1926 19.1289 19.5713C19.1289 18.951 19.6324 18.447 20.2532 18.447C20.8749 18.447 21.3784 18.951 21.3784 19.5713C21.3784 20.1926 20.8749 20.6965 20.2532 20.6965ZM22.5721 23.0154C21.9513 23.0154 21.4478 22.512 21.4478 21.8906C21.4478 21.2694 21.9513 20.7659 22.5721 20.7659C23.1938 20.7659 23.6973 21.2694 23.6973 21.8906C23.6973 22.512 23.1938 23.0154 22.5721 23.0154ZM22.5721 18.3776C21.9513 18.3776 21.4478 17.8741 21.4478 17.2528C21.4478 16.6315 21.9513 16.1281 22.5721 16.1281C23.1938 16.1281 23.6973 16.6315 23.6973 17.2528C23.6973 17.8741 23.1938 18.3776 22.5721 18.3776ZM24.891 20.6965C24.2702 20.6965 23.7667 20.1926 23.7667 19.5713C23.7667 18.951 24.2702 18.447 24.891 18.447C25.5128 18.447 26.0162 18.951 26.0162 19.5713C26.0162 20.1926 25.5128 20.6965 24.891 20.6965Z"
        fill="currentColor" />
    <defs>
        <clipPath id="clip0_30_718">
            <rect width="30" height="30" fill="white" />
        </clipPath>
    </defs>
</svg>