<svg width="30" height="30" viewBox="0 0 30 30" fill="none" xmlns="http://www.w3.org/2000/svg">
    <path
        d="M24.6094 2.49998L10.8594 4.37498C9.60938 4.50194 8.75 5.62498 8.75 6.87498V19.7265C8.17383 19.624 7.54883 19.624 6.875 19.7656C4.50195 20.3906 2.5 22.4853 2.5 24.6094C2.5 26.7334 4.50195 28.0078 6.875 27.3828C9.24805 26.7578 11.25 24.624 11.25 22.5V11.7578L25 9.92186V18.3984C24.4238 18.2959 23.7988 18.3398 23.125 18.5156C20.752 19.1406 18.75 21.2353 18.75 23.3594C18.75 25.4834 20.752 26.7578 23.125 26.1328C25.498 25.5078 27.5 23.374 27.5 21.25V4.99998C27.5 3.50096 26.1084 2.37303 24.6094 2.49998Z"
        fill="currentColor" />
</svg>