<svg width="25" height="25" viewBox="0 0 25 25" fill="none" xmlns="http://www.w3.org/2000/svg">
<path d="M25 12.0822C25 10.4338 22.926 8.87166 19.7462 7.90287C20.4801 4.67713 20.1539 2.11067 18.7168 1.28898C18.3856 1.09629 17.9983 1.00499 17.5754 1.00499V2.13607C17.8098 2.13607 17.9984 2.18167 18.1563 2.26798C18.8494 2.66357 19.1501 4.16994 18.9156 6.10751C18.8595 6.58431 18.7678 7.0864 18.6557 7.59869C17.6569 7.35519 16.5663 7.1676 15.4198 7.04579C14.7319 6.10752 14.0185 5.25543 13.2999 4.50984C14.9611 2.97307 16.5205 2.13108 17.5803 2.13108V1C16.179 1 14.3445 1.99408 12.4896 3.71855C10.6348 2.00417 8.80025 1.0203 7.39893 1.0203V2.15139C8.45374 2.15139 10.0181 2.98827 11.6794 4.51495C10.9659 5.26053 10.2525 6.10751 9.57475 7.04591C8.42309 7.1676 7.33261 7.3553 6.33387 7.60379C6.21661 7.0966 6.13001 6.60461 6.06894 6.13292C5.82942 4.19546 6.125 2.68908 6.8129 2.28839C6.96582 2.19709 7.16454 2.15649 7.39893 2.15649V1.02541C6.97083 1.02541 6.58364 1.1167 6.24727 1.3094C4.81529 2.13108 4.4943 4.69244 5.23325 7.90808C2.06381 8.88186 0 10.4389 0 12.0822C0 13.7255 2.07395 15.2927 5.25376 16.2615C4.51994 19.4873 4.84606 22.0537 6.28316 22.8754C6.6144 23.0681 7.00171 23.1594 7.4297 23.1594C8.83102 23.1594 10.6656 22.1653 12.5204 20.4409C14.3752 22.1552 16.2098 23.1391 17.6111 23.1391C18.0392 23.1391 18.4264 23.0478 18.7628 22.8551C20.1947 22.0334 20.5157 19.4721 19.7768 16.2564C22.9362 15.2876 25 13.7255 25 12.0822ZM18.3653 8.69927C18.1767 9.35355 17.9423 10.0281 17.6774 10.7027C17.4684 10.2969 17.2493 9.89125 17.0099 9.48546C16.7755 9.07966 16.5259 8.68407 16.2761 8.29857C16.9997 8.40507 17.6978 8.53697 18.3654 8.69927H18.3653ZM16.0313 14.1009C15.6339 14.7855 15.2262 15.4348 14.8032 16.0383C14.044 16.1042 13.2745 16.1397 12.4999 16.1397C11.7253 16.1397 10.9609 16.1042 10.2068 16.0433C9.78384 15.4397 9.37113 14.7956 8.97368 14.1159C8.58637 13.4516 8.23473 12.777 7.91374 12.0973C8.22972 11.4176 8.58637 10.738 8.96855 10.0735C9.366 9.38883 9.7737 8.73953 10.1967 8.13605C10.9559 8.07016 11.7254 8.03466 12.5 8.03466C13.2746 8.03466 14.039 8.07015 14.7931 8.13106C15.216 8.73465 15.6288 9.37873 16.0262 10.0584C16.4135 10.7228 16.7652 11.3974 17.0861 12.0771C16.7652 12.7568 16.4135 13.4364 16.0313 14.1009ZM17.6773 13.4416C17.9525 14.1213 18.1869 14.8009 18.3805 15.4603C17.713 15.6225 17.0097 15.7596 16.281 15.866C16.5307 15.4754 16.7804 15.0749 17.0148 14.664C17.2492 14.2582 17.4683 13.8474 17.6773 13.4416ZM12.5101 18.8534C12.0362 18.3665 11.5623 17.8238 11.0936 17.2303C11.5522 17.2506 12.021 17.2658 12.4949 17.2658C12.9688 17.2658 13.4478 17.2557 13.9115 17.2303C13.4528 17.8237 12.9789 18.3664 12.5101 18.8534ZM8.71889 15.8659C7.99533 15.7594 7.29717 15.6275 6.62956 15.4652C6.81814 14.811 7.05253 14.1364 7.31746 13.4618C7.52644 13.8676 7.74556 14.2733 7.98496 14.6791C8.22436 15.0848 8.46901 15.4804 8.71878 15.8659H8.71889ZM12.4847 5.31112C12.9586 5.79801 13.4325 6.34069 13.9013 6.93419C13.4427 6.91389 12.9739 6.89869 12.5 6.89869C12.0261 6.89869 11.5471 6.90879 11.0834 6.93419C11.542 6.34081 12.016 5.79812 12.4847 5.31112ZM8.71376 8.29857C8.46411 8.68906 8.21433 9.08975 7.97995 9.50065C7.74556 9.90645 7.52644 10.3121 7.31746 10.7179C7.04227 10.0382 6.80788 9.35866 6.61429 8.69927C7.28179 8.54207 7.98507 8.40507 8.71376 8.29857ZM4.1021 14.6487C2.2982 13.8828 1.13127 12.8785 1.13127 12.0822C1.13127 11.2859 2.2982 10.2765 4.1021 9.51574C4.54034 9.32804 5.01937 9.16075 5.51367 9.00344C5.80413 9.99752 6.1863 11.0322 6.66021 12.0923C6.19143 13.1473 5.81427 14.1769 5.52894 15.1659C5.0245 15.0087 4.54546 14.8362 4.1021 14.6485V14.6487ZM6.84366 21.8965C6.15064 21.5009 5.84993 19.9946 6.08443 18.057C6.1405 17.5802 6.23222 17.0781 6.34435 16.5658C7.3431 16.8093 8.43368 16.9969 9.58022 17.1187C10.2681 18.057 10.9815 18.9091 11.7001 19.6547C10.0389 21.1914 8.47949 22.0334 7.41967 22.0334C7.19041 22.0283 6.9967 21.9827 6.84389 21.8965H6.84366ZM18.9309 18.0317C19.1705 19.9692 18.8749 21.4755 18.187 21.8762C18.0341 21.9675 17.8353 22.0081 17.601 22.0081C16.5461 22.0081 14.9818 21.1712 13.3205 19.6446C14.034 18.899 14.7474 18.052 15.4251 17.1136C16.5768 16.9919 17.6673 16.8042 18.666 16.5557C18.7833 17.068 18.875 17.56 18.9309 18.0317ZM20.8928 14.6487C20.4545 14.8364 19.9755 15.0036 19.4812 15.161C19.1907 14.1669 18.8086 13.1322 18.3347 12.0721C18.8034 11.0171 19.1806 9.98754 19.4659 8.99845C19.9704 9.15565 20.4494 9.32815 20.8979 9.51585C22.7018 10.2817 23.8687 11.286 23.8687 12.0823C23.8636 12.8786 22.6967 13.888 20.8928 14.6488V14.6487Z" fill="currentColor"/>
<path d="M12.4948 14.4C13.7809 14.4 14.8235 13.3623 14.8235 12.0821C14.8235 10.802 13.7809 9.76428 12.4948 9.76428C11.2086 9.76428 10.166 10.802 10.166 12.0821C10.166 13.3623 11.2086 14.4 12.4948 14.4Z" fill="currentColor"/>
</svg>
