<svg width="25" height="25" viewBox="0 0 25 25" fill="none" xmlns="http://www.w3.org/2000/svg">
<g clip-path="url(#clip0_61_118)">
<path d="M0 12.5V0H25V25H0" fill="#007ACC"/>
<path d="M5.4812 12.5438V13.5626H8.7312V22.8126H11.0375V13.5626H14.2875V12.5626C14.2875 12.0001 14.2875 11.5438 14.2625 11.5313C14.2625 11.5126 12.2812 11.5063 9.87495 11.5063L5.49995 11.5251V12.5501L5.4812 12.5438ZM20.0875 11.5001C20.725 11.6501 21.2125 11.9376 21.65 12.3938C21.8812 12.6438 22.225 13.0813 22.25 13.1938C22.25 13.2313 21.1687 13.9626 20.5125 14.3688C20.4875 14.3876 20.3875 14.2813 20.2875 14.1188C19.9625 13.6563 19.6312 13.4563 19.1125 13.4188C18.3625 13.3688 17.8625 13.7626 17.8625 14.4188C17.8625 14.6188 17.9 14.7313 17.975 14.8938C18.1437 15.2376 18.4562 15.4438 19.425 15.8688C21.2125 16.6376 21.9874 17.1438 22.4562 17.8688C22.9874 18.6813 23.1062 19.9563 22.75 20.9126C22.35 21.9563 21.375 22.6626 19.9812 22.8938C19.5437 22.9688 18.5437 22.9563 18.075 22.8751C17.075 22.6876 16.1187 22.1876 15.5312 21.5438C15.3 21.2938 14.8562 20.6251 14.8812 20.5813L15.1187 20.4313L16.0562 19.8876L16.7625 19.4751L16.925 19.6938C17.1312 20.0188 17.5937 20.4563 17.8625 20.6063C18.675 21.0251 19.7625 20.9688 20.3 20.4813C20.5312 20.2688 20.6312 20.0438 20.6312 19.7313C20.6312 19.4438 20.5875 19.3126 20.4437 19.0938C20.2437 18.8188 19.8437 18.5938 18.7187 18.0938C17.425 17.5438 16.875 17.1938 16.3625 16.6563C16.0687 16.3313 15.8 15.8251 15.675 15.4063C15.5812 15.0438 15.55 14.1563 15.6375 13.8001C15.9062 12.5501 16.85 11.6751 18.2 11.4251C18.6375 11.3376 19.6687 11.3751 20.1 11.4876L20.0875 11.5001Z" fill="white"/>
</g>
<defs>
<clipPath id="clip0_61_118">
<rect width="25" height="25" fill="white"/>
</clipPath>
</defs>
</svg>
