<svg xmlns="http://www.w3.org/2000/svg" version="1.1" viewBox="0 0 50 50" width="20" height="20">
  <rect fill="#1d1c57" width="50" height="50" rx="5" ry="5" />
  <path fill="#9696ca"
    d="M20.53,30.17h-7.63l-1.55,5.03c-.05.18-.21.31-.4.29h-3.87c-.22,0-.29-.12-.24-.36l6.61-18.77c.07-.2.13-.42.2-.68.08-.44.13-.89.13-1.34-.01-.12.06-.21.18-.24h5.32c.15,0,.25.06.26.16l7.52,20.9c.07.22,0,.33-.2.33h-4.29c-.15.01-.29-.08-.33-.24l-1.69-5.09ZM14.08,26.66h5.22c-.13-.44-.28-1.34-.46-1.89-.18-.55-.36-1.14-.56-1.76-.2-.62-.4-1.26-.6-1.88s-.38-1.24-.55-1.82c-.16-.59-.32-1.12-.45-1.6h-.04c-.19.89-.42,1.78-.69,2.65-.31.99-.62,2-.94,3.03-.31,1.04-.62,2.4-.93,3.28Z" />
  <path fill="#9696ca"
    d="M39.16,28.37h-6.5c.09.67.32,1.32.67,1.89.36.55.89.98,1.51,1.24.85.38,1.75.58,2.68.56.62.01,1.24-.04,1.85-.14.66-.12,1.32-.32,1.93-.58.11-.08.16-.04.16.16v3.14c0,.08-.01.18-.05.25-.04.06-.09.11-.15.15-.68.33-1.41.56-2.15.71-.88.13-1.79.16-2.68.11-1.35.05-2.69-.21-3.93-.73-1-.44-1.88-1.11-2.58-1.95-.65-.79-1.13-1.71-1.42-2.69-.28-.98-.44-1.98-.44-2.99,0-1.11.16-2.2.52-3.26.33-1.02.85-1.98,1.54-2.81.68-.82,1.53-1.48,2.48-1.95,1.08-.49,2.26-.74,3.43-.71,1.15-.01,2.29.21,3.36.66.85.39,1.59.96,2.16,1.71.54.69.95,1.48,1.22,2.33.26.81.4,1.66.4,2.51,0,.48-.01.93-.05,1.32-.02.24-.07.47-.13.71-.01.15-.14.27-.29.26-.13,0-.35.01-.68.05s-.88.02-1.36.04c-.48.02-.98.04-1.51.04ZM32.63,25.74h4.33c.53,0,.92,0,1.18-.01.16,0,.32-.01.48-.05v-.2c.02-.4,0-.79-.07-1.18-.36-1.16-1.46-1.93-2.68-1.88-1.14-.07-2.21.54-2.73,1.55-.25.55-.42,1.15-.51,1.76Z" />
</svg>