<svg id="Layer_1" data-name="Layer 1" xmlns="http://www.w3.org/2000/svg" version="1.1" viewBox="0 0 50 50" width="20" height="20">
  <rect fill="#1d1c57" x="0" width="50" height="50" rx="5" ry="5"/>
  <path fill="#9696ca" fill-rule="evenodd" d="M19.14,14.72l6.76,20.23c.06.14.05.29-.01.42-.08.14-.24.21-.4.21h-3.51c-.12,0-.22-.02-.33-.08-.09-.06-.18-.14-.22-.25h-.01s-1.76-5.42-1.76-5.42h-6.28l-1.66,5.3c-.02.13-.08.25-.19.34-.11.08-.25.13-.39.12h-3.13c-.16.01-.33-.06-.44-.19-.08-.14-.11-.31-.05-.46h0s6.05-18.47,6.05-18.47h0c.16-.53.24-1.08.24-1.63-.01-.24.18-.44.41-.45h4.43c.11,0,.21.02.31.09.09.02.15.12.18.22ZM14.29,26.3c1.09-3.56,1.83-6.07,2.21-7.5.14.49.31,1.06.51,1.71.33,1.11.71,2.29,1.09,3.58.32,1,.54,1.74.68,2.22h-4.49Z"/>
  <path fill="#9696ca" d="M32.93,20.18c.05.14.08.28.11.42.02.11.05.22.07.38,1.16-.95,2.63-1.47,4.15-1.46.61,0,1.22.09,1.81.29.6.21,1.16.54,1.65.95.61.53,1.07,1.22,1.31,1.99.34.98.51,2,.48,3.03v9.28c.02.27-.18.49-.45.52h-3.39c-.27.02-.49-.18-.52-.45v-9.43c.05-.71-.15-1.41-.56-2h0c-.39-.47-.99-.73-1.61-.68-.96-.01-1.87.41-2.49,1.15v10.89c.02.27-.18.49-.45.52h-3.39c-.27.02-.49-.18-.52-.45v-11.5c0-1.33-.04-2.41-.12-3.28-.04-.13-.01-.28.07-.39.09-.12.24-.18.39-.16h2.85c.13,0,.26.02.36.09.11.05.19.15.25.28h0Z"/>
</svg>