<svg xmlns="http://www.w3.org/2000/svg" version="1.1" viewBox="0 0 50 50" width="20" height="20">
  <path fill="currentColor" d="M47.07,10.56c-.36-.54-.72-1.03-1.1-1.52s-.8-.98-1.26-1.39c-.44-.46-.87-.87-1.39-1.28-.46-.41-.98-.77-1.49-1.16-.77-.54-1.57-1.03-2.39-1.49-.82-.46-1.69-.85-2.54-1.18-.87-.36-1.77-.64-2.67-.87-.9-.23-1.82-.41-2.75-.54-.46-.05-.95-.1-1.39-.15-.46-.05-.92-.08-1.39-.08s-.95,0-1.41.03-.95.05-1.41.13c-.46.05-.95.13-1.41.21s-.92.18-1.39.31-.92.26-1.39.39-.9.31-1.36.49L6.86,7.94c-.36.15-.74.33-1.08.49-.36.18-.67.36-1,.59-.33.21-.64.44-.92.67-.28.23-.56.46-.82.74-.39.39-.74.77-1.08,1.21-.33.44-.59.87-.85,1.34s-.46.95-.62,1.44c-.15.49-.26,1-.36,1.49-.05.26-.05.51-.08.77-.05.26-.05.54-.05.8s.03.54.05.8.05.54.1.8.13.51.18.77c.08.26.15.54.26.8s.21.54.33.77l.39.77c.18.36.41.67.64.98.23.31.46.62.74.92.26.28.54.56.82.85.28.26.59.51.9.77.46.36.98.69,1.49.98.51.28,1.08.56,1.62.77.56.23,1.13.41,1.72.56.59.15,1.18.26,1.8.36.31.05.62.05.92.08.31.03.62.03.92.03s.62-.03.92-.05.62-.05.92-.1c.31-.05.62-.1.92-.15s.62-.15.9-.23c.31-.08.59-.18.87-.28s.56-.23.87-.36l11.92-5.24c.54-.23.98-.56,1.31-.92s.59-.8.74-1.28c.15-.46.18-.95.13-1.44-.05-.49-.26-.98-.54-1.46-.28-.46-.67-.87-1.13-1.18-.46-.33-.95-.56-1.49-.74-.54-.15-1.08-.23-1.64-.21s-1.1.15-1.64.36l-11.79,5.08c-.13.05-.23.08-.36.13s-.23.05-.36.1c-.13.03-.23.05-.36.05-.13.03-.23.03-.36.03-.18,0-.36,0-.54-.03s-.36-.05-.51-.08c-.15-.05-.36-.08-.51-.15-.15-.05-.33-.13-.46-.21-.08-.05-.15-.08-.23-.13s-.15-.08-.23-.15c-.05-.05-.15-.1-.21-.15-.05-.05-.13-.1-.18-.15l-.18-.18c-.05-.05-.13-.13-.15-.18-.05-.05-.1-.15-.15-.21s-.1-.15-.15-.23l-.15-.31c-.05-.1-.08-.21-.13-.31s-.05-.21-.08-.31c-.03-.1-.05-.21-.05-.31-.03-.15-.03-.31,0-.46s.05-.31.08-.46c.05-.15.08-.28.15-.44s.15-.26.23-.41c.05-.05.08-.13.15-.18.05-.05.1-.13.15-.18s.1-.13.15-.15c.05-.05.13-.1.18-.15.05-.05.13-.1.18-.15.05-.05.15-.1.21-.15.08-.05.15-.08.23-.13s.15-.08.26-.1l13.56-5.68c.36-.15.69-.26,1.05-.36.36-.1.69-.21,1.08-.28.36-.08.72-.15,1.08-.18.36-.05.72-.05,1.08-.08.54-.03,1.08,0,1.62.05s1.08.13,1.62.26c.54.13,1.08.26,1.59.44s1,.39,1.49.62c.26.13.46.26.72.36.23.15.46.26.69.44.23.15.46.31.67.46s.44.33.62.51c.21.18.41.36.59.56.18.18.36.39.56.59.18.21.36.41.51.64s.33.46.46.67c.21.31.36.62.54.95.15.31.31.64.41.95.13.33.23.64.31.98.08.33.15.64.21.98.08.49.1.98.1,1.46,0,.46-.05.98-.15,1.44-.08.46-.21.95-.36,1.39-.15.46-.36.9-.62,1.31-.13.21-.26.44-.39.62-.15.21-.28.41-.46.59-.15.18-.33.39-.49.56s-.36.36-.56.54c-.18.15-.39.36-.59.49-.21.15-.44.31-.67.46-.23.15-.46.28-.72.41s-.49.26-.77.36l-19.23,8.68,7.47,11.27c.36.51.77.95,1.28,1.28.49.33,1.05.56,1.62.72.56.15,1.18.18,1.77.13s1.18-.26,1.69-.54.95-.67,1.28-1.08.56-.87.69-1.39c.13-.49.15-1.03.08-1.54-.08-.51-.26-1.05-.56-1.54-.03-.03-.03-.05-.05-.05-.03-.03-.03-.05-.05-.05,0-.03-.03-.05-.05-.05-.03-.03-.03-.05-.05-.05l-2.39-3.54,10.99-4.88c.62-.28,1.18-.59,1.77-.92.56-.33,1.08-.69,1.59-1.08s.98-.77,1.44-1.18.87-.85,1.26-1.28c.56-.67,1.1-1.39,1.57-2.11.46-.74.85-1.49,1.16-2.29s.56-1.59.77-2.41c.18-.82.28-1.64.36-2.49.03-.41.03-.85.03-1.28-.03-.44-.05-.85-.08-1.28-.05-.44-.13-.85-.18-1.28-.08-.44-.18-.85-.31-1.28-.13-.41-.26-.85-.41-1.26-.15-.41-.33-.85-.51-1.26s-.39-.82-.62-1.23c-.31-.36-.56-.77-.82-1.16"/>
</svg>