<svg xmlns="http://www.w3.org/2000/svg" version="1.1" viewBox="0 0 50 50" width="20" height="20">
  <rect fill="#231f20" x="0" y="0" width="50" height="50" rx="25" ry="25" />
  <path fill="#0acf83" d="M20,40c2.76,0,5-2.24,5-5v-5h-5c-2.76,0-5,2.24-5,5,0,2.76,2.24,5,5,5Z" />
  <path fill="#a259ff" d="M15,25c0-2.76,2.24-5,5-5h5v10h-5c-2.76,0-5-2.24-5-5Z" />
  <path fill="#f24e1e" d="M15,15c0-2.76,2.24-5,5-5h5v10h-5c-2.76,0-5-2.24-5-5Z" />
  <path fill="#ff7262" d="M25,10h5c2.76,0,5,2.24,5,5,0,2.76-2.24,5-5,5h-5v-10Z" />
  <path fill="#1abcfe" d="M35,25c0,2.76-2.24,5-5,5-2.76,0-5-2.24-5-5,0-2.76,2.24-5,5-5,2.76,0,5,2.24,5,5Z" />
</svg>