<svg xmlns="http://www.w3.org/2000/svg" version="1.1" viewBox="0 0 50 50" width="20" height="20">
  <rect fill="#301111" width="50" height="50" rx="5" ry="5"/>
  <path fill="#f89a1c" d="M25.07,31.17h-7.63l-1.56,5.09c-.05.18-.21.31-.4.29h-3.87c-.22,0-.29-.12-.24-.36l6.59-19.03c.07-.2.13-.42.2-.68.09-.36.13-.75.13-1.13-.01-.11.06-.21.18-.24h5.32c.15,0,.25.06.26.16l7.52,20.94c.07.22,0,.33-.2.33h-4.29c-.15.01-.29-.08-.33-.24l-1.66-5.14ZM18.59,27.65h5.6c-.13-.44-.59-1.46-.76-2.01s-.42-.99-.61-1.61c-.2-.62-.4-1.26-.6-1.88-.2-.62-.38-1.24-.55-1.82-.16-.59-.32-1.12-.45-1.6h-.04c-.19.89-.42,1.78-.69,2.65-.31.99-.62,2-.94,3.03-.32,1.05-.65,2.38-.95,3.25h0Z"/>
  <path fill="#f89a1c" d="M36.04,18.59c-.68.02-1.34-.24-1.82-.73-.47-.51-.72-1.19-.69-1.88-.02-.69.25-1.35.74-1.83.49-.47,1.15-.73,1.83-.71.69-.04,1.38.22,1.87.71.46.49.71,1.15.68,1.83.02.69-.22,1.38-.71,1.88-.51.49-1.2.76-1.91.73ZM33.9,36.24v-15.1c0-.2.08-.29.26-.29h3.75c.18,0,.26.09.26.29v15.1c0,.22-.08.33-.26.33h-3.72c-.19,0-.29-.11-.29-.33Z"/>
</svg>