<svg xmlns="http://www.w3.org/2000/svg" version="1.1" viewBox="0 0 50 50">
  <rect fill="#451022" x="0" width="50" height="50" rx="5" ry="5"/>
  <path fill="#ee3a68" d="M17.75,15.27v20.71c0,.22-.09.33-.29.33h-3.78c-.18,0-.26-.11-.26-.33V15.27c0-.18.09-.26.29-.26h3.78c.13-.01.25.07.26.2.01.01.01.04,0,.06h0Z"/>
  <path fill="#ee3a68" d="M30.03,36.76c-1.52.02-3.02-.29-4.41-.93-1.29-.6-2.36-1.56-3.09-2.79-.8-1.42-1.19-3.05-1.13-4.68-.01-1.52.38-3.01,1.13-4.33.78-1.34,1.91-2.45,3.27-3.18,1.6-.84,3.39-1.25,5.19-1.19.11,0,.26,0,.44.01s.56.02.8.05v-6.25c0-.15.07-.24.2-.24h3.83c.09-.01.19.06.2.15v19.32c0,.38.01.79.05,1.22.04.44.06.84.08,1.19.01.14-.07.27-.2.33-1.02.45-2.09.78-3.19.99-1.05.2-2.11.29-3.16.31ZM32.22,32.65v-9.02c-.24-.05-.48-.08-.72-.09-.22-.02-.45-.04-.68-.04-.8-.01-1.6.18-2.32.53-1.58.75-2.53,2.39-2.41,4.13-.01.72.11,1.43.34,2.12.2.54.52,1.05.93,1.46.39.38.87.66,1.39.82.55.18,1.13.27,1.71.26.31,0,.6-.01.86-.04.31-.01.61-.06.91-.13h0Z"/>
</svg>