<svg xmlns="http://www.w3.org/2000/svg" version="1.1" viewBox="0 0 50 50">
  <rect fill="#1d1c57" x="0" width="50" height="50" rx="5" ry="5"/>
  <path fill="#9696ca" d="M10.67,35.75V14.31c0-.15.07-.23.2-.23.35,0,.69,0,1.17-.02.5-.02,1.02-.02,1.58-.03.57-.02,1.17-.02,1.81-.03.64-.02,1.27-.02,1.9-.02,1.71,0,3.12.2,4.29.64,1.04.35,2,.94,2.78,1.71.67.67,1.19,1.48,1.53,2.38.32.87.49,1.78.49,2.7,0,1.79-.42,3.27-1.24,4.43-.84,1.17-2,2.05-3.35,2.53-1.41.52-2.99.7-4.68.7-.5,0-.84,0-1.04-.02s-.5-.02-.89-.02v6.69c.02.15-.08.27-.23.29h-4.06c-.17,0-.25-.08-.25-.27h0ZM15.2,18.11v6.99c.29.02.57.03.81.03h1.11c.81,0,1.63-.12,2.4-.37.67-.18,1.26-.59,1.71-1.11.44-.52.64-1.22.64-2.15.02-.64-.15-1.29-.49-1.86-.35-.54-.86-.96-1.46-1.19-.77-.32-1.61-.44-2.47-.42-.54,0-1.02,0-1.41.02-.39.02-.69.03-.84.05h0Z"/>
  <path fill="#9696ca" d="M29.32,19.31h3.64c.2,0,.37.15.44.34.07.17.1.34.12.52.03.2.08.44.1.64.02.23.03.49.03.75.62-.72,1.38-1.33,2.23-1.79.96-.54,2.06-.81,3.17-.81.15-.02.27.08.29.23v4.14c0,.17-.1.23-.34.23-.75-.02-1.53.03-2.25.2-.6.12-1.19.32-1.74.57-.4.18-.77.44-1.06.77v10.62c0,.2-.08.29-.27.29h-4.11c-.17.02-.32-.08-.34-.25v-11.62c0-.5,0-1.02-.02-1.56-.02-.54-.02-1.09-.03-1.63,0-.49-.03-.94-.08-1.41-.02-.1.03-.2.15-.23.02-.02.05-.02.07,0h0Z"/>
</svg>