<svg xmlns="http://www.w3.org/2000/svg" version="1.1" viewBox="0 0 50 50" width="20" height="20">
  <rect fill="#460437" x="0" y=".14" width="50" height="50" rx="5" ry="5" />
  <path fill="#cb74af"
    d="M26.29,15.23l-6.24,10.3,6.67,10.93c.04.08.05.17.03.25-.02.08-.1.03-.23.05h-4.76c-.34,0-.57-.01-.7-.24-.45-.87-.89-1.74-1.34-2.6-.45-.86-.92-1.74-1.43-2.63-.5-.89-1-1.8-1.49-2.72h-.03c-.45.9-.91,1.79-1.39,2.68-.48.89-.96,1.78-1.43,2.67-.47.88-.95,1.76-1.44,2.63-.09.2-.25.22-.47.22h-4.6c-.09,0-.14.04-.15-.05-.01-.08,0-.17.05-.24l6.47-10.64-6.31-10.66c-.07-.09-.08-.16-.03-.22.05-.06.13-.09.2-.08h4.73c.1,0,.21.01.3.05.08.05.15.11.2.19.4.89.85,1.79,1.34,2.68.49.9.99,1.78,1.49,2.64.5.87.97,1.76,1.39,2.65h.03c.45-.92.9-1.81,1.36-2.68.46-.87.93-1.75,1.41-2.63.48-.88.94-1.76,1.39-2.63.03-.08.07-.16.13-.22.08-.04.18-.06.27-.05h4.39c.11-.02.21.05.23.16.01.07-.01.13-.06.18h0Z" />
  <path fill="#cb74af"
    d="M35.91,37.2c-1.54.02-3.07-.3-4.48-.94-1.31-.61-2.4-1.59-3.14-2.83-.76-1.26-1.14-2.85-1.14-4.75-.01-1.54.38-3.05,1.14-4.39.78-1.36,1.93-2.48,3.32-3.22,1.45-.8,3.21-1.21,5.27-1.21.11,0,.26,0,.44.02s.39.03.64.05v-6.61c0-.16.07-.23.2-.23h4.23c.1-.01.19.05.2.15,0,.02,0,.03,0,.05v19.82c0,.38.02.79.05,1.24.03.45.06.85.08,1.21,0,.14-.07.28-.2.34-1.09.45-2.23.79-3.39,1.01-1.06.2-2.14.3-3.22.3ZM37.96,33.04v-9.16c-.18-.05-.37-.08-.55-.1-.23-.02-.46-.03-.69-.03-.81,0-1.62.18-2.35.54-.71.35-1.31.89-1.76,1.54-.46.67-.69,1.55-.69,2.65-.02.73.1,1.46.35,2.15.2.55.52,1.06.94,1.48.4.38.88.67,1.41.84.56.18,1.14.27,1.73.27.31,0,.6-.01.87-.03.25-.02.49-.07.73-.14h0Z" />
</svg>