<svg width="50" height="50" viewBox="0 0 50 50" fill="none" xmlns="http://www.w3.org/2000/svg">
<path d="M49.1874 21.3511C47.9617 20.519 44.7405 20.1636 42.3987 20.7997C42.2725 18.4475 41.0698 16.4654 38.8695 14.736L38.055 14.1846L37.5122 15.0113C36.4451 16.6448 35.9955 18.8209 36.1548 20.799C36.2804 22.0178 36.7009 23.3879 37.5122 24.3819C34.4642 26.1647 31.655 25.76 19.2134 25.76H0.0043125C-0.0518855 28.5929 0.399682 34.0425 3.83635 38.4788C4.21585 38.9689 4.63238 39.4429 5.08395 39.8996C7.87798 42.7211 12.0994 44.7899 18.4121 44.7959C28.0425 44.8046 36.2936 39.5556 41.3125 26.8634C42.964 26.8907 47.3237 27.1621 49.4572 23.0045C49.5094 22.9345 50 21.9018 50 21.9018L49.1868 21.3504L49.1874 21.3511ZM12.5404 18.7602H7.13881V24.2072H12.5404V18.7602ZM19.5189 18.7602H14.1173V24.2072H19.5189V18.7602ZM26.4974 18.7602H21.0957V24.2072H26.4974V18.7602ZM33.4758 18.7602H28.0742V24.2072H33.4758V18.7602ZM5.56196 18.7602H0.160344V24.2072H5.56196V18.7602ZM12.5404 11.8804H7.13881V17.3275H12.5404V11.8804ZM19.5189 11.8804H14.1173V17.3275H19.5189V11.8804ZM26.4974 11.8804H21.0957V17.3275H26.4974V11.8804ZM26.4974 5H21.0957V10.447H26.4974V5Z" fill="#1D63ED"/>
</svg>
