<svg xmlns="http://www.w3.org/2000/svg" version="1.1" viewBox="0 0 50 50" width="20" height="20">
  <path fill="currentColor" d="M16.42,16.6c-4.1-.03-7.05,3.01-7.23,7.54h13.8c-.09-4.39-2.83-7.52-6.57-7.54Z" />
  <path fill="currentColor"
    d="M24.73.16C10.92.16-.27,11.35-.27,25.16s11.19,25,25,25,25-11.19,25-25S38.53.16,24.73.16ZM24.43,25.43h-15.27c-.23,6.08,4.14,9.74,9.72,7.87,1.96-.66,3.11-2.19,3.68-4.1.29-.96.78-1.11,1.68-.84-.46,2.4-1.5,4.4-3.7,5.65-3.28,1.88-7.97,1.27-10.43-1.34-1.47-1.51-2.08-3.43-2.35-5.48-.04-.34-.13-.66-.19-.99,0-.55,0-1.11,0-1.66h0s.6-2.96.6-2.96c1.64-5.86,8.36-8.3,12.99-4.68,2.71,2.13,3.38,5.14,3.25,8.52ZM39.16,33.57l-4.92-6.81-.71-.94-5.75,7.78c-.66.94-1.35,1.34-2.57,1.01l7.36-9.88-6.86-8.93c1.18-.23,1.99-.11,2.72.94l5.11,6.9,5.14-6.86c.66-.94,1.37-1.29,2.55-.95l-2.66,3.52-3.6,4.69c-.43.54-.37.9.02,1.42l6.88,9.14c-1.25.32-2.02.01-2.71-1.03Z" />
</svg>