<svg viewBox="0 0 20 20" fill="none" xmlns="http://www.w3.org/2000/svg" width="20" height="20">
    <path
        d="M10.0102 0C4.46264 0 0 4.58333 0 10.25C0 15.9167 2.86592 18.625 6.83726 19.9792C7.32856 20.0833 7.51279 19.75 7.51279 19.4792C7.51279 19.2083 7.51279 18.4167 7.51279 17.5833C4.72876 18.1875 4.15558 16.3542 4.15558 16.3542C3.70522 15.1667 3.05015 14.8542 3.05015 14.8542C2.14944 14.2292 3.11157 14.2292 3.11157 14.2292C4.11464 14.2917 4.64688 15.2917 4.64688 15.2917C5.54759 16.8542 6.98055 16.4167 7.55374 16.1458C7.63562 15.4792 7.90174 15.0208 8.18833 14.7708C5.97748 14.5417 3.64381 13.6458 3.64381 9.70833C3.64381 5.77083 4.03275 7.66667 4.66735 6.95833C4.56499 6.70833 4.21699 5.64583 4.7697 4.25C4.7697 4.25 5.60901 3.97917 7.51279 5.3125C8.33163 5.08333 9.17093 4.97917 10.0102 4.97917C10.8495 4.97917 11.7093 5.10417 12.5077 5.3125C14.4115 3.97917 15.2508 4.25 15.2508 4.25C15.8035 5.66667 15.4555 6.70833 15.3531 6.95833C16.0082 7.66667 16.3767 8.58333 16.3767 9.70833C16.3767 13.6458 14.043 14.5208 11.8117 14.7708C12.1801 15.0833 12.4872 15.7083 12.4872 16.6667C12.4872 18.0417 12.4872 19.1458 12.4872 19.4792C12.4872 19.8125 12.6714 20.0833 13.1627 19.9792C17.1341 18.625 20 14.7917 20 10.25C20 4.58333 15.5374 0 10.0102 0Z"
        fill="currentColor" />
</svg>