<svg xmlns="http://www.w3.org/2000/svg" version="1.1" viewBox="0 0 50 50" width="20" height="20">
  <path fill="#9a435c" class="cls-1"
    d="M38.92,22.42c-.14.21-.27.43-.37.67-.19.46-.3.96-.3,1.49,0,.34.04.67.13,1,.44,1.65,1.95,2.86,3.73,2.86.79,0,1.56-.24,2.21-.7.71-.5,1.24-1.22,1.49-2.05.11-.35.16-.73.16-1.11h0c0-2.01-1.54-3.66-3.5-3.84-.12-.01-.24-.02-.36-.02-1.33,0-2.5.68-3.2,1.7Z" />
  <path fill="#9a435c" class="cls-1"
    d="M27.54,18.56l6.16-12.46,6.15,12.54c.26-.1.52-.18.79-.24L46.86.04h-26.34l6.2,18.3c.28.06.55.13.82.22Z" />
  <path fill="#9a435c" class="cls-1"
    d="M29.7,19.83c.91.81,1.59,1.88,1.92,3.09,1.46-.05,2.91-.05,4.37,0,.3-1.12.91-2.14,1.75-2.94l-4.04-8.23-4,8.08Z" />
  <path fill="#9a435c" class="cls-1"
    d="M8.77,20.75c-2.13,0-3.86,1.73-3.86,3.86,0,.67.17,1.33.51,1.91.45.79,1.16,1.39,2,1.71.42.16.87.24,1.35.24.09,0,.18,0,.27-.01,1.25-.09,2.34-.77,2.99-1.77.39-.6.61-1.31.61-2.08,0-2.13-1.73-3.86-3.86-3.86Z" />
  <path fill="#9a435c" class="cls-1"
    d="M6.46,48.3c5.05,3.5,10.41.84,16.61-2.24,3.1-1.54,6.3-3.13,9.61-3.95,1.25-.31,2.53-.49,3.77-.67,2.31-.33,4.5-.65,6.32-1.7,1.96-1.13,3.29-3.02,3.67-5.19h0c.28-1.64.02-3.28-.7-4.75-1.03.72-2.28,1.14-3.63,1.14-3.22,0-5.89-2.41-6.3-5.52-1.33-.05-2.73-.05-4.04,0-.41,3.11-3.08,5.52-6.3,5.52-.32,0-.64-.02-.95-.07-1.04,1.63-2.3,3.16-3.76,4.55-2.27,2.14-4.82,3.72-7.6,4.71l-.51.18-.48-.25c-3.51-1.8-5.18-5.62-4.12-9.13-.56-.06-1.12-.2-1.64-.41-.18.37-.35.73-.53,1.1-1.04,2.15-2.12,4.36-2.52,6.77-.43,2.6-.6,7.34,3.1,9.91Z" />
  <path fill="#9a435c" class="cls-1"
    d="M25.86,28.42c1.65-.17,2.99-1.37,3.37-2.95.07-.29.11-.59.11-.9,0-.56-.12-1.12-.36-1.63-.12-.26-.27-.51-.45-.73-.71-.91-1.81-1.5-3.05-1.5-.19,0-.39.01-.57.04-1.86.28-3.29,1.88-3.29,3.82h0c0,1.36.71,2.55,1.77,3.24.62.4,1.35.62,2.09.62.13,0,.26,0,.39-.02Z" />
</svg>