<svg viewBox="0 0 50 50" fill="none" xmlns="http://www.w3.org/2000/svg" width="20" height="20">
    <path fill-rule="evenodd" clip-rule="evenodd"
        d="M46.0551 38.74C43.3353 38.6642 41.2252 38.943 39.4567 39.6869C38.9475 39.8915 38.1303 39.8915 38.0633 40.5324C38.3354 40.8013 38.3682 41.2415 38.6068 41.6142C39.0146 42.2907 39.7296 43.2021 40.3753 43.6748L42.5516 45.2301C43.878 46.0407 45.3744 46.5141 46.6665 47.3255C47.4151 47.799 48.1629 48.4073 48.9114 48.9149C49.2926 49.1853 49.5236 49.6255 50 49.7936V49.6914C49.7622 49.3884 49.6935 48.949 49.4565 48.6096L48.435 47.63C47.4494 46.3119 46.2244 45.1619 44.898 44.2164C43.8094 43.4725 41.4295 42.4589 40.9874 41.2089L40.9203 41.1331C41.6674 41.0574 42.5516 40.7945 43.2667 40.5915C44.4238 40.2885 45.4773 40.3551 46.6665 40.0513L48.3001 39.5779V39.2748C47.688 38.6665 47.2458 37.8551 46.6002 37.2809C44.866 35.7938 42.9602 34.34 40.9874 33.1234C39.9332 32.4476 38.5725 32.0075 37.4504 31.434C37.041 31.231 36.3618 31.1295 36.124 30.7916C35.5103 30.0492 35.1711 29.0681 34.729 28.1886L31.9405 22.3076C31.3284 20.9894 30.9534 19.6713 30.2063 18.4546C26.7028 12.7085 22.8929 9.22743 17.043 5.81308C15.7852 5.10324 14.2889 4.79793 12.698 4.42673L10.1473 4.29036C9.60229 4.054 9.05878 3.41159 8.58234 3.10704C6.64383 1.89039 1.64396 -0.745945 0.214658 2.72826C-0.703904 4.9252 1.57535 7.08806 2.34907 8.20396C2.92842 8.98122 3.67546 9.86 4.08482 10.7388C4.3135 11.313 4.38974 11.9221 4.62833 12.5304C5.17185 14.0175 5.68258 15.6743 6.39685 17.0607C6.778 17.7705 7.1782 18.5152 7.65464 19.1569C7.92678 19.5357 8.4032 19.6978 8.50459 20.3061C8.02815 20.9826 7.99538 21.9955 7.72324 22.8417C6.49824 26.6613 6.97467 31.3931 8.70888 34.2052C9.25392 35.0499 10.5384 36.9097 12.281 36.1991C13.8117 35.5908 13.4702 33.6643 13.9123 31.9742C14.0152 31.5689 13.9466 31.2984 14.1501 31.0272V31.1029L15.5451 33.9082C16.5994 35.5643 18.4365 37.2885 19.9664 38.4385C20.7821 39.0468 21.4285 40.0953 22.4485 40.4665V40.3642H22.3814C22.1771 40.0612 21.8706 39.9248 21.5985 39.6885C20.9864 39.0801 20.3064 38.3362 19.83 37.6604C18.4022 35.768 17.1444 33.6719 16.0216 31.509C15.4765 30.4613 15.0001 29.3121 14.5595 28.2643C14.3537 27.8583 14.3537 27.2492 14.0144 27.0477C13.5037 27.7901 12.7567 28.434 12.3808 29.3461C11.7344 30.7992 11.6673 32.5908 11.4295 34.4499C11.2923 34.484 11.3533 34.4499 11.2923 34.5256C10.2053 34.2559 9.83022 33.1393 9.42239 32.1938C8.40245 29.7939 8.23169 25.9409 9.11595 23.1689C9.35378 22.4591 10.3753 20.2281 9.96743 19.5523C9.76161 18.9099 9.08316 18.5387 8.70812 18.0311C8.26599 17.3887 7.79108 16.5781 7.48464 15.8683C6.66899 13.9743 6.26116 11.8797 5.37614 9.98651C4.96679 9.10774 4.25329 8.19487 3.67471 7.38427C3.02828 6.4714 2.31554 5.82898 1.8048 4.74793C1.63481 4.36915 1.39697 3.76764 1.66911 3.36159C1.73619 3.09114 1.87341 2.9828 2.14402 2.9222C2.58615 2.54341 3.84545 3.02371 4.28758 3.22523C5.54537 3.7328 6.59962 4.20552 7.65387 4.9146C8.1303 5.25248 8.64104 5.89489 9.25316 6.06459H9.96819C11.0567 6.30095 12.2802 6.14035 13.2994 6.44337C15.1022 7.01912 16.7343 7.86305 18.1979 8.77668C22.6527 11.582 26.327 15.5705 28.809 20.3372C29.2168 21.1144 29.3868 21.8243 29.7619 22.6356C30.4769 24.2924 31.3612 25.9818 32.0739 27.6053C32.789 29.1939 33.4689 30.8173 34.4889 32.1355C34.9996 32.8454 37.0395 33.2166 37.9573 33.5885C38.638 33.8916 39.6915 34.1643 40.3052 34.5355C41.4608 35.2453 42.6172 36.0567 43.705 36.8339C44.2485 37.2385 45.9499 38.0839 46.0513 38.7582L46.0551 38.74ZM11.3708 9.36758C10.9009 9.36345 10.4325 9.42024 9.97734 9.53652V9.61228H10.0444C10.3166 10.1532 10.793 10.5251 11.133 10.9986L11.9159 12.6213L11.9829 12.5456C12.4594 12.2077 12.698 11.6668 12.698 10.8562C12.4937 10.6198 12.4601 10.3827 12.2901 10.1464C12.0858 9.80848 11.6437 9.63879 11.3708 9.3691V9.36758Z"
        fill="#00678C" />
</svg>