<svg viewBox="0 0 50 50" fill="none" xmlns="http://www.w3.org/2000/svg" width="20" height="20">
    <path
        d="M34.6447 34.8244C36.4898 34.6353 37.8896 33.0603 37.826 31.1702C37.7625 29.2802 36.1717 27.7681 34.2629 27.7681H34.1357C32.1631 27.8311 30.6361 29.4691 30.6998 31.4221C30.7635 32.3672 31.1451 33.1862 31.7178 33.7532C29.5545 37.9745 26.2459 41.0616 21.283 43.6447C17.9107 45.4088 14.4113 46.0388 10.9119 45.5979C8.04863 45.2198 5.82168 43.9599 4.42168 41.8806C2.38574 38.7935 2.19492 35.4543 3.91289 32.1152C5.12187 29.7211 7.03047 27.957 8.23945 27.075C7.98496 26.256 7.60312 24.8699 7.4123 23.862C-1.81367 30.4772 -0.859182 39.4236 1.94043 43.6447C4.04004 46.795 8.30312 48.748 13.0115 48.748C14.284 48.748 15.5564 48.6219 16.8291 48.3071C24.9734 46.7319 31.1453 41.9436 34.6447 34.8244ZM45.8432 27.0121C41.0074 21.4048 33.8812 18.3177 25.7369 18.3177H24.7189C24.1463 17.1837 22.9373 16.4276 21.6012 16.4276H21.4738C19.5016 16.4906 17.9746 18.1286 18.0381 20.0818C18.1018 21.9718 19.6924 23.4839 21.6012 23.4839H21.7283C23.1281 23.4209 24.3371 22.5388 24.8461 21.3418H25.9914C30.8271 21.3418 35.4082 22.7278 39.5441 25.437C42.7254 27.5161 45.016 30.2253 46.2885 33.5013C47.3701 36.1474 47.3064 38.7305 46.1611 40.9357C44.3797 44.2747 41.3892 46.1019 37.4443 46.1019C34.8992 46.1019 32.4814 45.3457 31.2088 44.7787C30.509 45.4088 29.2363 46.4167 28.3455 47.047C31.0816 48.3069 33.8812 49 36.5535 49C42.6617 49 47.1793 45.6608 48.8973 42.3217C50.7424 38.6674 50.615 32.3672 45.8432 27.0121ZM13.5205 35.8952C13.5842 37.7854 15.1748 39.2973 17.0836 39.2973H17.2109C19.1834 39.2345 20.7103 37.5963 20.6467 35.6432C20.5832 33.753 18.9924 32.2411 17.0836 32.2411H16.9564C16.8291 32.2411 16.6381 32.2411 16.5111 32.304C13.9023 28.0199 12.8207 23.3578 13.2025 18.3175C13.4568 14.5374 14.7295 11.2612 16.9564 8.55201C18.8016 6.2209 22.3646 5.08687 24.7826 5.02402C31.5269 4.89793 34.39 13.2142 34.581 16.5535C35.4082 16.7424 36.808 17.1835 37.7625 17.4985C36.9988 7.29227 30.6361 2 24.5281 2C18.8016 2 13.5205 6.0952 11.4207 12.1434C8.49394 20.2077 10.4027 27.957 13.9658 34.0683C13.6478 34.5092 13.4568 35.2021 13.5205 35.8952Z"
        fill="#764ABC" />
</svg>