<svg width="50" height="50" viewBox="0 0 50 50" fill="none" xmlns="http://www.w3.org/2000/svg" width="20" height="20">
<path d="M25 10C18.3334 10 14.1666 13.3334 12.5 20C15 16.6666 17.9166 15.4166 21.25 16.25C23.1518 16.7254 24.5111 18.1053 26.0158 19.6324C28.467 22.1205 31.3037 25 37.5 25C44.1666 25 48.3334 21.6666 50 15C47.5 18.3334 44.5834 19.5834 41.25 18.75C39.3482 18.2746 37.9889 16.8947 36.4842 15.3676C34.033 12.8795 31.1963 10 25 10ZM12.5 25C5.8334 25 1.6666 28.3334 0 35C2.5 31.6666 5.4166 30.4166 8.75 31.25C10.6518 31.7254 12.0111 33.1053 13.5158 34.6324C15.967 37.1205 18.8037 40 25 40C31.6666 40 35.8334 36.6666 37.5 30C35 33.3334 32.0834 34.5834 28.75 33.75C26.8482 33.2746 25.4889 31.8947 23.9842 30.3676C21.533 27.8795 18.6963 25 12.5 25Z" fill="url(#paint0_linear_28_758)"/>
<defs>
<linearGradient id="paint0_linear_28_758" x1="-355.584" y1="1484.56" x2="-207.529" y2="3145.93" gradientUnits="userSpaceOnUse">
<stop stop-color="#2298BD"/>
<stop offset="1" stop-color="#0ED7B5"/>
</linearGradient>
</defs>
</svg>
