<svg width="20" height="20" viewBox="0 0 20 20" fill="none" xmlns="http://www.w3.org/2000/svg">
<path d="M5.55556 0C2.44444 0 0 2.44444 0 5.55556V14.4444C0 17.5556 2.44444 20 5.55556 20H14.4444C17.5556 20 20 17.5556 20 14.4444V5.55556C20 2.44444 17.5556 0 14.4444 0H5.55556ZM5.55556 2.22222H14.4444C16.3333 2.22222 17.7778 3.66667 17.7778 5.55556V14.4444C17.7778 16.3333 16.3333 17.7778 14.4444 17.7778H5.55556C3.66667 17.7778 2.22222 16.3333 2.22222 14.4444V5.55556C2.22222 3.66667 3.66667 2.22222 5.55556 2.22222ZM15.5556 3.33333C14.8889 3.33333 14.4444 3.77778 14.4444 4.44444C14.4444 5.11111 14.8889 5.55556 15.5556 5.55556C16.2222 5.55556 16.6667 5.11111 16.6667 4.44444C16.6667 3.77778 16.2222 3.33333 15.5556 3.33333ZM10 4.44444C6.88889 4.44444 4.44444 6.88889 4.44444 10C4.44444 13.1111 6.88889 15.5556 10 15.5556C13.1111 15.5556 15.5556 13.1111 15.5556 10C15.5556 6.88889 13.1111 4.44444 10 4.44444ZM10 6.66667C11.8889 6.66667 13.3333 8.11111 13.3333 10C13.3333 11.8889 11.8889 13.3333 10 13.3333C8.11111 13.3333 6.66667 11.8889 6.66667 10C6.66667 8.11111 8.11111 6.66667 10 6.66667Z" fill="currentColor"/>
</svg>
