<svg width="20" height="20" viewBox="0 0 20 20" fill="none" xmlns="http://www.w3.org/2000/svg">
<path d="M17 0H3C1.34375 0 0 1.34375 0 3V17C0 18.6563 1.34375 20 3 20H17C18.6563 20 20 18.6563 20 17V3C20 1.34375 18.6563 0 17 0ZM6.83594 15.3125H4.25781V7.57812H6.83594V15.3125ZM5.54688 6.83594C4.75 6.83594 4.10156 6.1875 4.10156 5.39062C4.10156 4.59375 4.75 3.94531 5.54688 3.94531C6.34375 3.94531 6.99219 4.59375 6.99219 5.39062C6.99219 6.1875 6.34375 6.83594 5.54688 6.83594ZM16.0547 15.3125H13.4766V11.2109C13.4766 10.1562 13.125 9.45312 12.1875 9.45312C11.25 9.45312 10.9531 10.0039 10.8203 10.6406V15.3125H8.24219V7.57812H10.8203V8.60937C11.1484 8.10547 11.8086 7.42188 13.0859 7.42188C14.3633 7.42188 16.0547 8.51562 16.0547 10.8984V15.3125Z" fill="currentColor"/>
</svg>
